<svg width="6" height="12" viewBox="0 0 6 12" fill="none" xmlns="http://www.w3.org/2000/svg">
<path d="M1.09903 2.72854C1.09903 3.00312 1.09903 4.22866 1.09903 4.22866H0V6.06301H1.09903V11.514H3.35667V6.06316H4.87165C4.87165 6.06316 5.01354 5.1836 5.08231 4.2219C4.88513 4.2219 3.36521 4.2219 3.36521 4.2219C3.36521 4.2219 3.36521 3.15473 3.36521 2.96768C3.36521 2.78022 3.61136 2.52807 3.85465 2.52807C4.09748 2.52807 4.61 2.52807 5.08469 2.52807C5.08469 2.27832 5.08469 1.41538 5.08469 0.618408C4.45099 0.618408 3.73004 0.618408 3.41225 0.618408C1.04322 0.618282 1.09903 2.45445 1.09903 2.72854Z" fill="white"/>
</svg>
