<svg width="16" height="11" viewBox="0 0 16 11" fill="none" xmlns="http://www.w3.org/2000/svg">
<path d="M13.3758 4.62013C14.2231 4.55023 14.7977 4.16507 15.0189 3.64246C14.7133 3.8302 13.7646 4.03488 13.2407 3.83995C13.215 3.71685 13.1863 3.59992 13.1581 3.49435C12.7589 2.02842 11.392 0.847407 9.9598 0.99008C10.0757 0.943294 10.1932 0.899734 10.3104 0.860629C10.468 0.804163 11.393 0.65367 11.2473 0.327186C11.1246 0.0400171 9.99449 0.544211 9.7817 0.610111C10.0626 0.504474 10.5271 0.322767 10.5769 0C10.1466 0.059026 9.72412 0.262478 9.3977 0.558309C9.51554 0.431454 9.60494 0.276858 9.62392 0.110477C8.47616 0.843724 7.80569 2.322 7.26309 3.75599C6.83704 3.34309 6.45942 3.01794 6.12066 2.83739C5.17032 2.32776 4.03403 1.79603 2.25031 1.13387C2.19557 1.72403 2.54218 2.50873 3.54096 3.03056C3.32456 3.00159 2.92885 3.06623 2.61236 3.14202C2.74125 3.8181 3.16218 4.37511 4.30173 4.64447C3.78095 4.67884 3.51181 4.79734 3.26789 5.05277C3.50508 5.52298 4.08387 6.07638 5.12504 5.96278C3.96746 6.46172 4.65305 7.38568 5.59497 7.24789C3.98812 8.90759 1.45474 8.78561 0 7.39743C3.79824 12.5731 12.0547 10.4583 13.2852 5.47318C14.207 5.48104 14.749 5.15385 15.085 4.79314C14.5539 4.88327 13.784 4.79012 13.3758 4.62013Z" fill="white"/>
</svg>
